<?xml version="1.0" encoding="iso-8859-1"?>
<svg xmlns="http://www.w3.org/2000/svg" xmlns:xlink="http://www.w3.org/1999/xlink" version="1.1"
     viewBox="0 0 244.409 244.409" enable-background="new 0 0 244.409 244.409" width="512px" height="512px">
    <path d="m190.597,72.257v-30h-30.006v-12.257h10.006v-30h-51.279v30h11.273v12.257h-11.273v30h11.273v12.257h-11.273v30h11.273v29.271l7.26,4.374c10.834,6.527 17.302,17.959 17.302,30.581 0,19.669-16.001,35.67-35.67,35.67s-35.67-16.001-35.67-35.67c0-12.622 6.468-24.054 17.302-30.581l7.26-4.374v-143h-30v126.758c-15.33,12.366-24.562,31.28-24.562,51.197 0,36.211 29.459,65.67 65.67,65.67s65.67-29.459 65.67-65.67c0-19.917-9.231-38.831-24.562-51.197v-13.028h10.006v-30h-10.006v-12.258h30.006z"
          fill="#405952"/>
</svg>
